<svg width="54" height="54" viewBox="0 0 54 54" fill="none" xmlns="http://www.w3.org/2000/svg">
<g filter="url(#filter0_d_5459_36050)">
<rect x="2" width="50" height="50" rx="25" fill="#FF274F" shape-rendering="crispEdges"/>
<path d="M14.2787 21.74L13.5947 31.73C13.5827 31.91 13.5167 32 13.3967 32H12.4067C11.7347 32 11.2547 31.868 10.9667 31.604C10.6787 31.34 10.5347 30.962 10.5347 30.47C10.5347 30.29 10.5407 30.02 10.5527 29.66C10.5767 29.3 10.6067 28.88 10.6427 28.4C10.6787 27.908 10.7147 27.38 10.7507 26.816C10.7987 26.24 10.8467 25.664 10.8947 25.088C10.9427 24.5 10.9847 23.918 11.0207 23.342C11.0687 22.766 11.1107 22.232 11.1467 21.74H8.26671C8.13471 21.74 8.06871 21.656 8.06871 21.488L8.12271 20.48C8.13471 20.324 8.15871 20.174 8.19471 20.03C8.24271 19.874 8.31471 19.736 8.41071 19.616C8.50671 19.496 8.62671 19.4 8.77071 19.328C8.92671 19.256 9.11271 19.22 9.32871 19.22H17.3747C17.4467 19.22 17.5127 19.238 17.5727 19.274C17.6327 19.31 17.6627 19.376 17.6627 19.472L17.5907 20.534C17.5667 20.894 17.4647 21.188 17.2847 21.416C17.1167 21.632 16.7627 21.74 16.2227 21.74H14.2787ZM19.2702 32.18C18.4422 32.18 17.7522 32.066 17.2002 31.838C16.6602 31.598 16.2282 31.274 15.9042 30.866C15.5802 30.458 15.3522 29.984 15.2202 29.444C15.0882 28.892 15.0222 28.304 15.0222 27.68C15.0222 26.96 15.1062 26.258 15.2742 25.574C15.4542 24.878 15.7542 24.26 16.1742 23.72C16.5942 23.18 17.1462 22.748 17.8302 22.424C18.5262 22.088 19.3902 21.92 20.4222 21.92C21.9342 21.92 23.0142 22.292 23.6622 23.036C24.3222 23.768 24.6522 24.8 24.6522 26.132C24.6522 26.504 24.6222 26.918 24.5622 27.374C24.5142 27.818 24.4122 28.262 24.2562 28.706C24.1122 29.15 23.9082 29.582 23.6442 30.002C23.3922 30.422 23.0682 30.794 22.6722 31.118C22.2762 31.442 21.7962 31.7 21.2322 31.892C20.6802 32.084 20.0262 32.18 19.2702 32.18ZM20.1162 24.314C19.6602 24.314 19.2942 24.434 19.0182 24.674C18.7542 24.902 18.5502 25.184 18.4062 25.52C18.2742 25.844 18.1842 26.192 18.1362 26.564C18.1002 26.924 18.0822 27.23 18.0822 27.482C18.0822 28.274 18.2082 28.856 18.4602 29.228C18.7122 29.6 19.0722 29.786 19.5402 29.786C19.9602 29.786 20.3022 29.654 20.5662 29.39C20.8422 29.126 21.0522 28.808 21.1962 28.436C21.3522 28.064 21.4542 27.674 21.5022 27.266C21.5622 26.858 21.5922 26.516 21.5922 26.24C21.5922 25.64 21.4782 25.172 21.2502 24.836C21.0342 24.488 20.6562 24.314 20.1162 24.314ZM27.1812 19.49C27.1932 19.394 27.2292 19.328 27.2892 19.292C27.3612 19.244 27.4272 19.22 27.4872 19.22C28.3032 19.22 29.0652 19.196 29.7732 19.148C30.4932 19.088 31.0572 19.058 31.4652 19.058C32.4852 19.058 33.3372 19.16 34.0212 19.364C34.7172 19.568 35.2752 19.886 35.6952 20.318C36.1272 20.75 36.4332 21.308 36.6132 21.992C36.7932 22.676 36.8832 23.498 36.8832 24.458C36.8832 25.43 36.7812 26.384 36.5772 27.32C36.3852 28.244 36.0432 29.066 35.5512 29.786C35.0592 30.506 34.3932 31.088 33.5532 31.532C32.7252 31.964 31.6752 32.18 30.4032 32.18C29.8152 32.18 29.2752 32.168 28.7832 32.144C28.3032 32.12 27.8892 32.048 27.5412 31.928C27.1932 31.808 26.9232 31.628 26.7312 31.388C26.5392 31.148 26.4432 30.818 26.4432 30.398C26.4432 30.242 26.4492 30.008 26.4612 29.696C26.4852 29.384 26.5092 29.012 26.5332 28.58C26.5692 28.148 26.6052 27.674 26.6412 27.158C26.6892 26.63 26.7372 26.078 26.7852 25.502C26.8812 24.314 26.9532 23.366 27.0012 22.658C27.0612 21.95 27.0972 21.398 27.1092 21.002C27.1332 20.594 27.1452 20.288 27.1452 20.084C27.1572 19.88 27.1692 19.682 27.1812 19.49ZM30.5292 29.336C31.2012 29.336 31.7352 29.192 32.1312 28.904C32.5392 28.616 32.8512 28.25 33.0672 27.806C33.2832 27.362 33.4272 26.876 33.4992 26.348C33.5712 25.82 33.6072 25.322 33.6072 24.854C33.6072 24.35 33.5712 23.912 33.4992 23.54C33.4392 23.156 33.3252 22.838 33.1572 22.586C33.0012 22.334 32.7792 22.148 32.4912 22.028C32.2032 21.896 31.8432 21.83 31.4112 21.83C31.2792 21.83 31.1112 21.836 30.9072 21.848C30.7032 21.86 30.4572 21.878 30.1692 21.902C30.1452 22.346 30.1152 22.874 30.0792 23.486C30.0432 24.086 30.0012 24.722 29.9532 25.394C29.9172 26.054 29.8752 26.726 29.8272 27.41C29.7792 28.082 29.7312 28.706 29.6832 29.282C29.8632 29.306 30.0252 29.324 30.1692 29.336C30.3132 29.336 30.4332 29.336 30.5292 29.336ZM40.4835 32.18C39.6555 32.18 38.9655 32.066 38.4135 31.838C37.8735 31.598 37.4415 31.274 37.1175 30.866C36.7935 30.458 36.5655 29.984 36.4335 29.444C36.3015 28.892 36.2355 28.304 36.2355 27.68C36.2355 26.96 36.3195 26.258 36.4875 25.574C36.6675 24.878 36.9675 24.26 37.3875 23.72C37.8075 23.18 38.3595 22.748 39.0435 22.424C39.7395 22.088 40.6035 21.92 41.6355 21.92C43.1475 21.92 44.2275 22.292 44.8755 23.036C45.5355 23.768 45.8655 24.8 45.8655 26.132C45.8655 26.504 45.8355 26.918 45.7755 27.374C45.7275 27.818 45.6255 28.262 45.4695 28.706C45.3255 29.15 45.1215 29.582 44.8575 30.002C44.6055 30.422 44.2815 30.794 43.8855 31.118C43.4895 31.442 43.0095 31.7 42.4455 31.892C41.8935 32.084 41.2395 32.18 40.4835 32.18ZM41.3295 24.314C40.8735 24.314 40.5075 24.434 40.2315 24.674C39.9675 24.902 39.7635 25.184 39.6195 25.52C39.4875 25.844 39.3975 26.192 39.3495 26.564C39.3135 26.924 39.2955 27.23 39.2955 27.482C39.2955 28.274 39.4215 28.856 39.6735 29.228C39.9255 29.6 40.2855 29.786 40.7535 29.786C41.1735 29.786 41.5155 29.654 41.7795 29.39C42.0555 29.126 42.2655 28.808 42.4095 28.436C42.5655 28.064 42.6675 27.674 42.7155 27.266C42.7755 26.858 42.8055 26.516 42.8055 26.24C42.8055 25.64 42.6915 25.172 42.4635 24.836C42.2475 24.488 41.8695 24.314 41.3295 24.314Z" fill="white"/>
</g>
<defs>
<filter id="filter0_d_5459_36050" x="0" y="0" width="54" height="54" filterUnits="userSpaceOnUse" color-interpolation-filters="sRGB">
<feFlood flood-opacity="0" result="BackgroundImageFix"/>
<feColorMatrix in="SourceAlpha" type="matrix" values="0 0 0 0 0 0 0 0 0 0 0 0 0 0 0 0 0 0 127 0" result="hardAlpha"/>
<feOffset dy="2"/>
<feGaussianBlur stdDeviation="1"/>
<feComposite in2="hardAlpha" operator="out"/>
<feColorMatrix type="matrix" values="0 0 0 0 0 0 0 0 0 0 0 0 0 0 0 0 0 0 0.25 0"/>
<feBlend mode="normal" in2="BackgroundImageFix" result="effect1_dropShadow_5459_36050"/>
<feBlend mode="normal" in="SourceGraphic" in2="effect1_dropShadow_5459_36050" result="shape"/>
</filter>
</defs>
</svg>
